<svg width="216" height="26" viewBox="0 0 216 26" fill="none" xmlns="http://www.w3.org/2000/svg">
<path d="M18.6935 0.5L29.3512 6.65327V18.9598L18.6935 25.1131L8.0357 18.9598V6.65327L18.6935 0.5Z" fill="#065E7C"/>
<path d="M43.9497 20.5H40.953V8.32721C40.953 7.47987 41.1184 6.76686 41.449 6.18819C41.7866 5.60263 42.2585 5.16174 42.8647 4.86551C43.4778 4.5624 44.2046 4.41084 45.0451 4.41084C45.3206 4.41084 45.5858 4.43151 45.8407 4.47284C46.0956 4.50729 46.3436 4.55206 46.5847 4.60718L46.5537 6.84953C46.4229 6.81509 46.2851 6.79098 46.1404 6.7772C45.9957 6.76342 45.827 6.75653 45.6341 6.75653C45.2758 6.75653 44.9693 6.81853 44.7144 6.94253C44.4664 7.05964 44.2769 7.23531 44.1461 7.46954C44.0152 7.70376 43.9497 7.98965 43.9497 8.32721V20.5ZM46.1817 9.31922V11.4272H39.2893V9.31922H46.1817ZM47.2667 15.0233V14.8063C47.2667 13.9865 47.3839 13.2322 47.6181 12.5433C47.8523 11.8475 48.1933 11.2447 48.6411 10.7349C49.0889 10.2251 49.64 9.82901 50.2944 9.54656C50.9489 9.25722 51.6998 9.11255 52.5471 9.11255C53.3945 9.11255 54.1488 9.25722 54.8102 9.54656C55.4715 9.82901 56.0261 10.2251 56.4738 10.7349C56.9285 11.2447 57.273 11.8475 57.5072 12.5433C57.7414 13.2322 57.8585 13.9865 57.8585 14.8063V15.0233C57.8585 15.8362 57.7414 16.5905 57.5072 17.2863C57.273 17.9752 56.9285 18.578 56.4738 19.0947C56.0261 19.6044 55.4749 20.0006 54.8205 20.283C54.166 20.5654 53.4151 20.7067 52.5678 20.7067C51.7205 20.7067 50.9661 20.5654 50.3048 20.283C49.6503 20.0006 49.0958 19.6044 48.6411 19.0947C48.1933 18.578 47.8523 17.9752 47.6181 17.2863C47.3839 16.5905 47.2667 15.8362 47.2667 15.0233ZM50.2428 14.8063V15.0233C50.2428 15.4917 50.2841 15.9292 50.3668 16.3356C50.4494 16.7421 50.5803 17.1003 50.7594 17.4103C50.9455 17.7134 51.1866 17.9511 51.4828 18.1233C51.779 18.2955 52.1407 18.3816 52.5678 18.3816C52.9811 18.3816 53.3359 18.2955 53.6321 18.1233C53.9284 17.9511 54.166 17.7134 54.3452 17.4103C54.5243 17.1003 54.6552 16.7421 54.7378 16.3356C54.8274 15.9292 54.8722 15.4917 54.8722 15.0233V14.8063C54.8722 14.3516 54.8274 13.9245 54.7378 13.5249C54.6552 13.1185 54.5208 12.7603 54.3348 12.4503C54.1557 12.1334 53.918 11.8854 53.6218 11.7062C53.3256 11.5271 52.9674 11.4376 52.5471 11.4376C52.1269 11.4376 51.7687 11.5271 51.4725 11.7062C51.1831 11.8854 50.9455 12.1334 50.7594 12.4503C50.5803 12.7603 50.4494 13.1185 50.3668 13.5249C50.2841 13.9245 50.2428 14.3516 50.2428 14.8063ZM59.2122 15.0233V14.8063C59.2122 13.9865 59.3293 13.2322 59.5635 12.5433C59.7978 11.8475 60.1388 11.2447 60.5865 10.7349C61.0343 10.2251 61.5854 9.82901 62.2399 9.54656C62.8943 9.25722 63.6452 9.11255 64.4926 9.11255C65.3399 9.11255 66.0943 9.25722 66.7556 9.54656C67.4169 9.82901 67.9715 10.2251 68.4193 10.7349C68.874 11.2447 69.2184 11.8475 69.4526 12.5433C69.6869 13.2322 69.804 13.9865 69.804 14.8063V15.0233C69.804 15.8362 69.6869 16.5905 69.4526 17.2863C69.2184 17.9752 68.874 18.578 68.4193 19.0947C67.9715 19.6044 67.4204 20.0006 66.7659 20.283C66.1115 20.5654 65.3606 20.7067 64.5133 20.7067C63.6659 20.7067 62.9116 20.5654 62.2502 20.283C61.5958 20.0006 61.0412 19.6044 60.5865 19.0947C60.1388 18.578 59.7978 17.9752 59.5635 17.2863C59.3293 16.5905 59.2122 15.8362 59.2122 15.0233ZM62.1882 14.8063V15.0233C62.1882 15.4917 62.2296 15.9292 62.3122 16.3356C62.3949 16.7421 62.5258 17.1003 62.7049 17.4103C62.8909 17.7134 63.132 17.9511 63.4282 18.1233C63.7245 18.2955 64.0861 18.3816 64.5133 18.3816C64.9266 18.3816 65.2814 18.2955 65.5776 18.1233C65.8738 17.9511 66.1115 17.7134 66.2906 17.4103C66.4697 17.1003 66.6006 16.7421 66.6833 16.3356C66.7728 15.9292 66.8176 15.4917 66.8176 15.0233V14.8063C66.8176 14.3516 66.7728 13.9245 66.6833 13.5249C66.6006 13.1185 66.4663 12.7603 66.2803 12.4503C66.1012 12.1334 65.8635 11.8854 65.5673 11.7062C65.271 11.5271 64.9128 11.4376 64.4926 11.4376C64.0724 11.4376 63.7141 11.5271 63.4179 11.7062C63.1286 11.8854 62.8909 12.1334 62.7049 12.4503C62.5258 12.7603 62.3949 13.1185 62.3122 13.5249C62.2296 13.9245 62.1882 14.3516 62.1882 14.8063ZM78.2361 18.0613V4.62784H81.2328V20.5H78.5357L78.2361 18.0613ZM71.168 15.0439V14.8269C71.168 13.9727 71.2644 13.1977 71.4573 12.5019C71.6502 11.7992 71.9327 11.1965 72.3047 10.6936C72.6767 10.1907 73.1348 9.80145 73.679 9.52589C74.2232 9.25033 74.8432 9.11255 75.539 9.11255C76.1935 9.11255 76.7653 9.25033 77.2544 9.52589C77.7504 9.80145 78.1706 10.1941 78.5151 10.7039C78.8664 11.2068 79.1488 11.8027 79.3624 12.4916C79.576 13.1736 79.731 13.921 79.8274 14.7339V15.2093C79.731 15.9877 79.576 16.7111 79.3624 17.3793C79.1488 18.0475 78.8664 18.6331 78.5151 19.136C78.1706 19.632 77.7504 20.0178 77.2544 20.2933C76.7584 20.5689 76.1797 20.7067 75.5184 20.7067C74.8226 20.7067 74.2026 20.5654 73.6583 20.283C73.121 20.0006 72.6663 19.6044 72.2943 19.0947C71.9292 18.5849 71.6502 17.9855 71.4573 17.2966C71.2644 16.6077 71.168 15.8568 71.168 15.0439ZM74.144 14.8269V15.0439C74.144 15.5055 74.1785 15.9361 74.2473 16.3356C74.3231 16.7352 74.4437 17.09 74.609 17.4C74.7812 17.7031 75.0017 17.9408 75.2704 18.113C75.5459 18.2783 75.88 18.361 76.2727 18.361C76.7825 18.361 77.2027 18.2473 77.5334 18.02C77.8641 17.7858 78.1155 17.4654 78.2877 17.059C78.4668 16.6525 78.5702 16.1841 78.5977 15.6536V14.2999C78.5771 13.8659 78.5151 13.4767 78.4117 13.1323C78.3153 12.7809 78.1706 12.4813 77.9777 12.2333C77.7917 11.9852 77.5575 11.7924 77.275 11.6546C76.9995 11.5168 76.6723 11.4479 76.2934 11.4479C75.9076 11.4479 75.5769 11.5375 75.3014 11.7166C75.0258 11.8888 74.8019 12.1265 74.6297 12.4296C74.4644 12.7327 74.3403 13.0909 74.2577 13.5043C74.1819 13.9107 74.144 14.3516 74.144 14.8269ZM93.9739 20.7067C93.1059 20.7067 92.3274 20.5689 91.6385 20.2933C90.9496 20.0109 90.3641 19.6217 89.8818 19.1257C89.4065 18.6296 89.0414 18.0544 88.7865 17.4C88.5316 16.7386 88.4042 16.036 88.4042 15.2919V14.8786C88.4042 14.0313 88.5247 13.2563 88.7658 12.5536C89.0069 11.8509 89.3514 11.2412 89.7992 10.7246C90.2538 10.2079 90.805 9.81178 91.4525 9.53622C92.1001 9.25378 92.8303 9.11255 93.6432 9.11255C94.4354 9.11255 95.1381 9.24344 95.7512 9.50522C96.3643 9.767 96.8776 10.139 97.2909 10.6212C97.7111 11.1035 98.028 11.6821 98.2416 12.3573C98.4551 13.0255 98.5619 13.7695 98.5619 14.5893V15.8293H89.6752V13.8453H95.6376V13.6179C95.6376 13.2046 95.5618 12.836 95.4102 12.5123C95.2656 12.1816 95.0451 11.9198 94.7489 11.7269C94.4527 11.534 94.0738 11.4376 93.6122 11.4376C93.2195 11.4376 92.882 11.5237 92.5995 11.6959C92.3171 11.8681 92.0863 12.1093 91.9072 12.4193C91.735 12.7293 91.6041 13.0944 91.5145 13.5146C91.4319 13.9279 91.3905 14.3826 91.3905 14.8786V15.2919C91.3905 15.7397 91.4525 16.1531 91.5765 16.532C91.7074 16.9109 91.89 17.2381 92.1242 17.5136C92.3653 17.7892 92.6546 18.0028 92.9922 18.1543C93.3366 18.3059 93.7259 18.3816 94.1599 18.3816C94.6972 18.3816 95.1967 18.2783 95.6582 18.0716C96.1267 17.8581 96.5297 17.5377 96.8672 17.1106L98.3139 18.6813C98.0797 19.0189 97.7594 19.3427 97.3529 19.6527C96.9534 19.9627 96.4711 20.2176 95.9062 20.4173C95.3413 20.6102 94.6972 20.7067 93.9739 20.7067ZM102.654 9.31922L104.504 12.7189L106.405 9.31922H109.577L106.415 14.7856L109.722 20.5H106.539L104.524 16.904L102.509 20.5H99.3266L102.633 14.7856L99.4713 9.31922H102.654ZM114 11.4686V24.7987H111.024V9.31922H113.783L114 11.4686ZM121.078 14.7856V15.0026C121.078 15.8155 120.982 16.5698 120.789 17.2656C120.603 17.9614 120.328 18.5676 119.962 19.0843C119.597 19.5941 119.143 19.9937 118.598 20.283C118.061 20.5654 117.441 20.7067 116.738 20.7067C116.056 20.7067 115.464 20.5689 114.961 20.2933C114.458 20.0178 114.035 19.632 113.69 19.136C113.353 18.6331 113.08 18.051 112.874 17.3896C112.667 16.7283 112.509 16.0187 112.398 15.2609V14.6926C112.509 13.8797 112.667 13.1357 112.874 12.4606C113.08 11.7786 113.353 11.1896 113.69 10.6936C114.035 10.1907 114.455 9.80145 114.951 9.52589C115.454 9.25033 116.043 9.11255 116.718 9.11255C117.427 9.11255 118.051 9.24689 118.588 9.51556C119.132 9.78423 119.587 10.17 119.952 10.6729C120.324 11.1758 120.603 11.7751 120.789 12.4709C120.982 13.1667 121.078 13.9383 121.078 14.7856ZM118.092 15.0026V14.7856C118.092 14.3103 118.051 13.8728 117.968 13.4733C117.892 13.0668 117.768 12.712 117.596 12.4089C117.431 12.1058 117.21 11.8716 116.935 11.7062C116.666 11.534 116.339 11.4479 115.953 11.4479C115.547 11.4479 115.199 11.5134 114.909 11.6442C114.627 11.7751 114.396 11.9646 114.217 12.2126C114.038 12.4606 113.904 12.7568 113.814 13.1013C113.725 13.4457 113.669 13.8349 113.649 14.2689V15.7053C113.683 16.2151 113.78 16.6732 113.938 17.0796C114.097 17.4792 114.341 17.7961 114.672 18.0303C115.002 18.2645 115.436 18.3816 115.974 18.3816C116.366 18.3816 116.697 18.2955 116.966 18.1233C117.234 17.9442 117.451 17.6996 117.617 17.3896C117.789 17.0796 117.91 16.7214 117.978 16.315C118.054 15.9085 118.092 15.4711 118.092 15.0026ZM126.07 4.62784V20.5H123.083V4.62784H126.07ZM128.054 15.0233V14.8063C128.054 13.9865 128.171 13.2322 128.405 12.5433C128.639 11.8475 128.98 11.2447 129.428 10.7349C129.876 10.2251 130.427 9.82901 131.081 9.54656C131.736 9.25722 132.487 9.11255 133.334 9.11255C134.181 9.11255 134.936 9.25722 135.597 9.54656C136.258 9.82901 136.813 10.2251 137.261 10.7349C137.715 11.2447 138.06 11.8475 138.294 12.5433C138.528 13.2322 138.645 13.9865 138.645 14.8063V15.0233C138.645 15.8362 138.528 16.5905 138.294 17.2863C138.06 17.9752 137.715 18.578 137.261 19.0947C136.813 19.6044 136.262 20.0006 135.607 20.283C134.953 20.5654 134.202 20.7067 133.355 20.7067C132.507 20.7067 131.753 20.5654 131.092 20.283C130.437 20.0006 129.883 19.6044 129.428 19.0947C128.98 18.578 128.639 17.9752 128.405 17.2863C128.171 16.5905 128.054 15.8362 128.054 15.0233ZM131.03 14.8063V15.0233C131.03 15.4917 131.071 15.9292 131.154 16.3356C131.236 16.7421 131.367 17.1003 131.546 17.4103C131.732 17.7134 131.973 17.9511 132.27 18.1233C132.566 18.2955 132.927 18.3816 133.355 18.3816C133.768 18.3816 134.123 18.2955 134.419 18.1233C134.715 17.9511 134.953 17.7134 135.132 17.4103C135.311 17.1003 135.442 16.7421 135.525 16.3356C135.614 15.9292 135.659 15.4917 135.659 15.0233V14.8063C135.659 14.3516 135.614 13.9245 135.525 13.5249C135.442 13.1185 135.308 12.7603 135.122 12.4503C134.943 12.1334 134.705 11.8854 134.409 11.7062C134.112 11.5271 133.754 11.4376 133.334 11.4376C132.914 11.4376 132.555 11.5271 132.259 11.7062C131.97 11.8854 131.732 12.1334 131.546 12.4503C131.367 12.7603 131.236 13.1185 131.154 13.5249C131.071 13.9245 131.03 14.3516 131.03 14.8063ZM143.45 11.7579V20.5H140.474V9.31922H143.275L143.45 11.7579ZM146.819 9.24689L146.767 12.0059C146.623 11.9852 146.447 11.968 146.24 11.9542C146.041 11.9336 145.858 11.9232 145.693 11.9232C145.272 11.9232 144.907 11.9784 144.597 12.0886C144.294 12.1919 144.039 12.3469 143.833 12.5536C143.633 12.7603 143.481 13.0117 143.378 13.3079C143.282 13.6042 143.226 13.9417 143.213 14.3206L142.613 14.1346C142.613 13.4113 142.686 12.7465 142.83 12.1403C142.975 11.5271 143.185 10.9932 143.461 10.5386C143.743 10.0839 144.088 9.73256 144.494 9.48456C144.9 9.23656 145.365 9.11255 145.889 9.11255C146.054 9.11255 146.223 9.12633 146.395 9.15389C146.568 9.17455 146.709 9.20555 146.819 9.24689ZM153.164 20.7067C152.296 20.7067 151.517 20.5689 150.828 20.2933C150.14 20.0109 149.554 19.6217 149.072 19.1257C148.596 18.6296 148.231 18.0544 147.976 17.4C147.722 16.7386 147.594 16.036 147.594 15.2919V14.8786C147.594 14.0313 147.715 13.2563 147.956 12.5536C148.197 11.8509 148.541 11.2412 148.989 10.7246C149.444 10.2079 149.995 9.81178 150.642 9.53622C151.29 9.25378 152.02 9.11255 152.833 9.11255C153.625 9.11255 154.328 9.24344 154.941 9.50522C155.554 9.767 156.067 10.139 156.481 10.6212C156.901 11.1035 157.218 11.6821 157.432 12.3573C157.645 13.0255 157.752 13.7695 157.752 14.5893V15.8293H148.865V13.8453H154.827V13.6179C154.827 13.2046 154.752 12.836 154.6 12.5123C154.455 12.1816 154.235 11.9198 153.939 11.7269C153.643 11.534 153.264 11.4376 152.802 11.4376C152.409 11.4376 152.072 11.5237 151.789 11.6959C151.507 11.8681 151.276 12.1093 151.097 12.4193C150.925 12.7293 150.794 13.0944 150.704 13.5146C150.622 13.9279 150.58 14.3826 150.58 14.8786V15.2919C150.58 15.7397 150.642 16.1531 150.766 16.532C150.897 16.9109 151.08 17.2381 151.314 17.5136C151.555 17.7892 151.845 18.0028 152.182 18.1543C152.527 18.3059 152.916 18.3816 153.35 18.3816C153.887 18.3816 154.387 18.2783 154.848 18.0716C155.317 17.8581 155.72 17.5377 156.057 17.1106L157.504 18.6813C157.27 19.0189 156.949 19.3427 156.543 19.6527C156.143 19.9627 155.661 20.2176 155.096 20.4173C154.531 20.6102 153.887 20.7067 153.164 20.7067ZM162.423 11.7579V20.5H159.447V9.31922H162.247L162.423 11.7579ZM165.791 9.24689L165.74 12.0059C165.595 11.9852 165.419 11.968 165.213 11.9542C165.013 11.9336 164.83 11.9232 164.665 11.9232C164.245 11.9232 163.88 11.9784 163.57 12.0886C163.266 12.1919 163.012 12.3469 162.805 12.5536C162.605 12.7603 162.454 13.0117 162.35 13.3079C162.254 13.6042 162.199 13.9417 162.185 14.3206L161.586 14.1346C161.586 13.4113 161.658 12.7465 161.803 12.1403C161.947 11.5271 162.157 10.9932 162.433 10.5386C162.715 10.0839 163.06 9.73256 163.466 9.48456C163.873 9.23656 164.338 9.11255 164.861 9.11255C165.027 9.11255 165.195 9.12633 165.368 9.15389C165.54 9.17455 165.681 9.20555 165.791 9.24689Z" fill="white"/>
<path d="M179.564 16.416V13.1523C179.564 12.9023 179.514 12.6855 179.412 12.502C179.314 12.3145 179.166 12.1699 178.967 12.0684C178.768 11.9668 178.521 11.916 178.229 11.916C177.955 11.916 177.715 11.9629 177.508 12.0566C177.305 12.1504 177.145 12.2734 177.027 12.4258C176.914 12.5781 176.857 12.7422 176.857 12.918H175.773C175.773 12.6914 175.832 12.4668 175.949 12.2441C176.066 12.0215 176.234 11.8203 176.453 11.6406C176.676 11.457 176.941 11.3125 177.25 11.207C177.562 11.0977 177.91 11.043 178.293 11.043C178.754 11.043 179.16 11.1211 179.512 11.2773C179.867 11.4336 180.145 11.6699 180.344 11.9863C180.547 12.2988 180.648 12.6914 180.648 13.1641V16.1172C180.648 16.3281 180.666 16.5527 180.701 16.791C180.74 17.0293 180.797 17.2344 180.871 17.4062V17.5H179.74C179.686 17.375 179.643 17.209 179.611 17.002C179.58 16.791 179.564 16.5957 179.564 16.416ZM179.752 13.6562L179.764 14.418H178.668C178.359 14.418 178.084 14.4434 177.842 14.4941C177.6 14.541 177.396 14.6133 177.232 14.7109C177.068 14.8086 176.943 14.9316 176.857 15.0801C176.771 15.2246 176.729 15.3945 176.729 15.5898C176.729 15.7891 176.773 15.9707 176.863 16.1348C176.953 16.2988 177.088 16.4297 177.268 16.5273C177.451 16.6211 177.676 16.668 177.941 16.668C178.273 16.668 178.566 16.5977 178.82 16.457C179.074 16.3164 179.275 16.1445 179.424 15.9414C179.576 15.7383 179.658 15.541 179.67 15.3496L180.133 15.8711C180.105 16.0352 180.031 16.2168 179.91 16.416C179.789 16.6152 179.627 16.8066 179.424 16.9902C179.225 17.1699 178.986 17.3203 178.709 17.4414C178.436 17.5586 178.127 17.6172 177.783 17.6172C177.354 17.6172 176.977 17.5332 176.652 17.3652C176.332 17.1973 176.082 16.9727 175.902 16.6914C175.727 16.4062 175.639 16.0879 175.639 15.7363C175.639 15.3965 175.705 15.0977 175.838 14.8398C175.971 14.5781 176.162 14.3613 176.412 14.1895C176.662 14.0137 176.963 13.8809 177.314 13.791C177.666 13.7012 178.059 13.6562 178.492 13.6562H179.752ZM186.35 16.2695V8.5H187.439V17.5H186.443L186.35 16.2695ZM182.084 14.4004V14.2773C182.084 13.793 182.143 13.3535 182.26 12.959C182.381 12.5605 182.551 12.2188 182.77 11.9336C182.992 11.6484 183.256 11.4297 183.561 11.2773C183.869 11.1211 184.213 11.043 184.592 11.043C184.99 11.043 185.338 11.1133 185.635 11.2539C185.936 11.3906 186.189 11.5918 186.396 11.8574C186.607 12.1191 186.773 12.4355 186.895 12.8066C187.016 13.1777 187.1 13.5977 187.146 14.0664V14.6055C187.104 15.0703 187.02 15.4883 186.895 15.8594C186.773 16.2305 186.607 16.5469 186.396 16.8086C186.189 17.0703 185.936 17.2715 185.635 17.4121C185.334 17.5488 184.982 17.6172 184.58 17.6172C184.209 17.6172 183.869 17.5371 183.561 17.377C183.256 17.2168 182.992 16.9922 182.77 16.7031C182.551 16.4141 182.381 16.0742 182.26 15.6836C182.143 15.2891 182.084 14.8613 182.084 14.4004ZM183.174 14.2773V14.4004C183.174 14.7168 183.205 15.0137 183.268 15.291C183.334 15.5684 183.436 15.8125 183.572 16.0234C183.709 16.2344 183.883 16.4004 184.094 16.5215C184.305 16.6387 184.557 16.6973 184.85 16.6973C185.209 16.6973 185.504 16.6211 185.734 16.4688C185.969 16.3164 186.156 16.1152 186.297 15.8652C186.438 15.6152 186.547 15.3438 186.625 15.0508V13.6387C186.578 13.4238 186.51 13.2168 186.42 13.0176C186.334 12.8145 186.221 12.6348 186.08 12.4785C185.943 12.3184 185.773 12.1914 185.57 12.0977C185.371 12.0039 185.135 11.957 184.861 11.957C184.564 11.957 184.309 12.0195 184.094 12.1445C183.883 12.2656 183.709 12.4336 183.572 12.6484C183.436 12.8594 183.334 13.1055 183.268 13.3867C183.205 13.6641 183.174 13.9609 183.174 14.2773ZM190.205 12.4199V17.5H189.115V11.1602H190.146L190.205 12.4199ZM189.982 14.0898L189.479 14.0723C189.482 13.6387 189.539 13.2383 189.648 12.8711C189.758 12.5 189.92 12.1777 190.135 11.9043C190.35 11.6309 190.617 11.4199 190.938 11.2715C191.258 11.1191 191.629 11.043 192.051 11.043C192.348 11.043 192.621 11.0859 192.871 11.1719C193.121 11.2539 193.338 11.3848 193.521 11.5645C193.705 11.7441 193.848 11.9746 193.949 12.2559C194.051 12.5371 194.102 12.877 194.102 13.2754V17.5H193.018V13.3281C193.018 12.9961 192.961 12.7305 192.848 12.5312C192.738 12.332 192.582 12.1875 192.379 12.0977C192.176 12.0039 191.938 11.957 191.664 11.957C191.344 11.957 191.076 12.0137 190.861 12.127C190.646 12.2402 190.475 12.3965 190.346 12.5957C190.217 12.7949 190.123 13.0234 190.064 13.2812C190.01 13.5352 189.982 13.8047 189.982 14.0898ZM194.09 13.4922L193.363 13.7148C193.367 13.3672 193.424 13.0332 193.533 12.7129C193.646 12.3926 193.809 12.1074 194.02 11.8574C194.234 11.6074 194.498 11.4102 194.811 11.2656C195.123 11.1172 195.48 11.043 195.883 11.043C196.223 11.043 196.523 11.0879 196.785 11.1777C197.051 11.2676 197.273 11.4062 197.453 11.5938C197.637 11.7773 197.775 12.0137 197.869 12.3027C197.963 12.5918 198.01 12.9355 198.01 13.334V17.5H196.92V13.3223C196.92 12.9668 196.863 12.6914 196.75 12.4961C196.641 12.2969 196.484 12.1582 196.281 12.0801C196.082 11.998 195.844 11.957 195.566 11.957C195.328 11.957 195.117 11.998 194.934 12.0801C194.75 12.1621 194.596 12.2754 194.471 12.4199C194.346 12.5605 194.25 12.7227 194.184 12.9062C194.121 13.0898 194.09 13.2852 194.09 13.4922ZM200.828 11.1602V17.5H199.738V11.1602H200.828ZM199.656 9.47852C199.656 9.30273 199.709 9.1543 199.814 9.0332C199.924 8.91211 200.084 8.85156 200.295 8.85156C200.502 8.85156 200.66 8.91211 200.77 9.0332C200.883 9.1543 200.939 9.30273 200.939 9.47852C200.939 9.64648 200.883 9.79102 200.77 9.91211C200.66 10.0293 200.502 10.0879 200.295 10.0879C200.084 10.0879 199.924 10.0293 199.814 9.91211C199.709 9.79102 199.656 9.64648 199.656 9.47852ZM203.652 12.5137V17.5H202.568V11.1602H203.594L203.652 12.5137ZM203.395 14.0898L202.943 14.0723C202.947 13.6387 203.012 13.2383 203.137 12.8711C203.262 12.5 203.438 12.1777 203.664 11.9043C203.891 11.6309 204.16 11.4199 204.473 11.2715C204.789 11.1191 205.139 11.043 205.521 11.043C205.834 11.043 206.115 11.0859 206.365 11.1719C206.615 11.2539 206.828 11.3867 207.004 11.5703C207.184 11.7539 207.32 11.9922 207.414 12.2852C207.508 12.5742 207.555 12.9277 207.555 13.3457V17.5H206.465V13.334C206.465 13.002 206.416 12.7363 206.318 12.5371C206.221 12.334 206.078 12.1875 205.891 12.0977C205.703 12.0039 205.473 11.957 205.199 11.957C204.93 11.957 204.684 12.0137 204.461 12.127C204.242 12.2402 204.053 12.3965 203.893 12.5957C203.736 12.7949 203.613 13.0234 203.523 13.2812C203.438 13.5352 203.395 13.8047 203.395 14.0898Z" fill="#82F3FF"/>
</svg>
